<?xml version="1.0" encoding="utf-8"?>
<!-- Generator: Adobe Illustrator 24.2.3, SVG Export Plug-In . SVG Version: 6.00 Build 0)  -->
<svg version="1.1" id="b098510b-f452-4b85-993b-a1bbfe267c61"
	 xmlns="http://www.w3.org/2000/svg" xmlns:xlink="http://www.w3.org/1999/xlink" x="0px" y="0px" viewBox="0 0 1448.2 782.7"
	 style="enable-background:new 0 0 1448.2 782.7;" xml:space="preserve">
<style type="text/css">
	.st0{opacity:0.1;fill:#6394FF;enable-background:new    ;}
	.st1{fill:#FFFFFF;}
	.st2{opacity:0.1;enable-background:new    ;}
	.st3{fill:#CF6F80;}
	.st4{fill:#6394FF;}
	.st5{fill:#3F3D56;}
	.st6{fill:#512E4E;}
	.st7{opacity:0.1;}
	.st8{fill:#535461;}
	.st9{fill:#9D9CB5;}
	.st10{fill:none;stroke:#535461;stroke-width:2;stroke-miterlimit:10;}
	.st11{fill:url(#SVGID_1_);}
	.st12{fill:#1D2366;}
	.st13{fill:#FFB0B1;}
	.st14{fill:#C7DAF5;}
	.st15{opacity:3.000000e-02;enable-background:new    ;}
	.st16{fill:#DCE7FF;}
	.st17{fill:#591D4B;}
	.st18{fill:#BE8B87;}
	.st19{opacity:0.1;fill:#FFFFFF;enable-background:new    ;}
	.st20{fill:#EFC8C4;}
	.st21{fill:#727A9C;}
</style>
<ellipse class="st0" cx="348" cy="767.5" rx="97.4" ry="15.7"/>
<ellipse class="st0" cx="1292.5" cy="765.1" rx="121.6" ry="15.7"/>
<path class="st0" d="M163.6,338.2h101.5v138.3H171c-0.2,1.4-0.5,2.8-0.8,4.3h94.8v111.6c-0.2,0-0.3-0.1-0.5-0.2
	c-2.7-1.1-5.3-2.2-8-3.4l-1.7-0.8c-2.7-1.3-5.3-2.6-8-4c-0.9-0.5-1.9-1-2.8-1.5c-14.8-8.3-28.3-18.8-39.9-31.2c-0.3-0.3-0.7-0.7-1-1
	c-1.6-1.8-3.2-3.5-4.8-5.4l-1.7-2c-1.8-2.2-3.6-4.5-5.3-6.8c-0.2-0.3-0.5-0.7-0.8-1c-7-9.6-12.7-20.1-17.2-31.1
	c-0.1-0.3-0.3-0.7-0.4-1c-1.4-3.5-2.6-7.1-3.7-10.7c-0.5-1.5-0.9-3-1.3-4.6c-0.1-0.5-0.3-0.9-0.4-1.4c-5.7-22.2-6.3-45.2-6.3-68.1
	c0-2.7,0-5.4,0-8c0-9.2,0.1-18.6,0.3-27.9c0-2.4,0.1-4.8,0.1-7.2c0.1-6.1,0.3-12.3,0.6-18.4c0.1-1.7,0.1-3.4,0.2-5.1
	c0-1,0.1-2,0.1-2.9C163.1,345.2,163.3,341.7,163.6,338.2z"/>
<path class="st0" d="M265.1,184.2h-55.7c9-14.2,18.9-27.8,29.6-40.8c8.3-10.2,17-20.1,26.1-29.6V184.2z"/>
<path class="st0" d="M265.1,188.5v145.5H163.9c0-0.4,0.1-0.9,0.1-1.3c0.1-1.1,0.2-2.3,0.3-3.4c0.1-1.3,0.2-2.7,0.4-4
	s0.3-2.9,0.4-4.4s0.3-2.9,0.5-4.4s0.3-2.9,0.5-4.3c0.2-1.4,0.3-2.9,0.5-4.3c0.2-1.2,0.3-2.4,0.5-3.6c0.2-1.7,0.5-3.4,0.7-5.1
	c0-0.2,0.1-0.5,0.1-0.8c1.8-12.3,4.3-24.5,7.4-36.5c3.3-12.6,7.5-25,12.6-37c5.4-12.6,11.7-24.7,18.9-36.4L265.1,188.5z"/>
<path class="st0" d="M289.3,338.2v138.3h216.8V338.2H289.3z M289.3,480.8v118.8c1.2,0.3,2.5,0.5,3.7,0.7c1.7,0.3,3.3,0.6,5,0.9
	c0.3,0,0.6,0.1,1,0.1c0.7,0.1,1.3,0.2,2,0.3c1.7,0.2,3.3,0.4,5,0.6c0.8,0.1,1.6,0.2,2.4,0.2l1.9,0.2l0,0c1,0.1,2.1,0.1,3.1,0.2
	c0.6,0,1.3,0.1,1.9,0.1c0.5,0,1,0,1.5,0c0.5,0,1.3,0,1.9,0c0.9,0,1.7,0,2.6,0h1.1c0.9,0,1.7,0,2.6-0.1h0.1c0.6,0,1.2,0,1.8-0.1
	c0.2,0,0.3,0,0.5,0c0.5,0,1,0,1.5-0.1h0.4l3.4-0.3c1.1-0.1,2.2-0.2,3.3-0.3l2.3-0.3c9.3-1.3,18.4-3.3,27.5-5.8
	c20.2-5.6,40-13.5,60.2-19.3c26.1-7.5,55-11.1,80.2-2v-93.7H289.3z M506.1,184.2V0c-23.7-0.3-47.4,2.5-70.4,8.3
	C380.7,22.1,331.5,52,289.3,90.2v94h10.9v4.3h-10.9v145.5h216.8V188.4H344.8v-4.3H506.1z M784.5,122c-13.6-0.5-27.1-4.8-39.3-11.4
	c-23.3-12.7-42-32.3-62.8-48.9c-43.3-34.5-97-55.3-152.1-60.4v182.9h309.5l0.8-0.8L784.5,122z M812.7,117l29.9,32.8v-41.4
	C832.6,109.6,823.8,112.6,812.7,117L812.7,117z M842.6,629.1V480.8h-63.7c-0.2-0.6-0.3-1.3-0.5-1.9c0.2,0.6,0.3,1.3,0.5,1.9H530.3
	V588c2.4,1.8,4.7,3.6,7,5.5l0,0c2.5,2,5,4.1,7.4,6.2l2.5,2.1c1.2,1,2.4,2,3.6,2.9c2.4,1.9,4.8,3.9,7.3,5.8c1.2,1,2.5,1.9,3.7,2.8
	c19.5,14.9,40.1,28.4,61.6,40.3c4.8,2.7,9.7,5.3,14.6,7.8c3.3,1.7,6.6,3.3,9.9,4.9c5,2.4,10,4.8,15,7l0,0
	c46.5,20.9,95.6,35.2,146,42.5c11.2,1.7,22.4,3,33.7,3.9L842.6,629.1l1,0L842.6,629.1z M530.3,188.4v145.5h312.3V188.4H530.3z
	 M530.3,338.2v138.3h312.3V338.2H530.3z M866.9,108.2v46.2l38.2-41.9C892.4,110.5,879.6,109,866.9,108.2L866.9,108.2z M866.9,338.2
	v138.3h303.8V338.2L866.9,338.2z M1169.5,640.1l1.1-159.3H866.9v240.6c19.6,0.8,39.2,0.6,58.7-0.7l0,0h0.3
	c9.3-0.6,18.6-1.4,27.9-2.6h0.2c49.3-5.7,97.6-18.6,143.2-38.2 M1229.2,361c-1.1-2.7-2.3-5.4-3.5-8c-2.3-5-4.7-9.9-7.1-14.7h-23.7
	v138.3h59.9C1254.7,437.4,1244.8,397.4,1229.2,361L1229.2,361z M1194.8,480.8v137c16.9-16.2,31.1-34.7,41.4-55.8
	c12.3-25.5,18-53.1,18.5-81.2L1194.8,480.8z M1194.8,297.9v36h21.5C1209.8,321.5,1202.6,309.5,1194.8,297.9L1194.8,297.9z
	 M988.8,135.3c-1.6-0.6-3.2-1.2-4.8-1.8c-16.8-6.2-33.9-11.3-51.3-15.4l-58.4,64.1l0,0l-1.1,1.2l0.8,0.8h207.8
	C1052.9,164.3,1021.7,147.9,988.8,135.3L988.8,135.3z M1087.9,188.5H871.1l-4.3,3.9v141.5h37.3h0.1l0,0h266.4v-68.5
	C1146.5,236.2,1118.7,210.4,1087.9,188.5L1087.9,188.5z"/>
<path class="st0" d="M265.1,261.8v72.1H163.9c0-0.4,0.1-0.9,0.1-1.3c0.1-1.1,0.2-2.3,0.3-3.4c0.1-1.3,0.2-2.7,0.4-4s0.3-2.9,0.4-4.4
	s0.3-2.9,0.5-4.4s0.3-2.9,0.5-4.3c0.2-1.4,0.3-2.9,0.5-4.3c0.2-1.2,0.3-2.4,0.5-3.6c0.2-1.7,0.5-3.4,0.7-5.1c0-0.2,0.1-0.5,0.1-0.8
	c1.8-12.3,4.3-24.5,7.4-36.5L265.1,261.8z"/>
<path class="st0" d="M163.6,338.2h101.5v138.3H171c-0.2,1.4-0.5,2.8-0.8,4.3h94.8v111.6c-0.2,0-0.3-0.1-0.5-0.2
	c-2.7-1.1-5.3-2.2-8-3.4l-1.7-0.8c-2.7-1.3-5.3-2.6-8-4c-0.9-0.5-1.9-1-2.8-1.5c-14.8-8.3-28.3-18.8-39.9-31.2c-0.3-0.3-0.7-0.7-1-1
	c-1.6-1.8-3.2-3.5-4.8-5.4l-1.7-2c-1.8-2.2-3.6-4.5-5.3-6.8c-0.2-0.3-0.5-0.7-0.8-1c-7-9.6-12.7-20.1-17.2-31.1
	c-0.1-0.3-0.3-0.7-0.4-1c-1.4-3.5-2.6-7.1-3.7-10.7c-0.5-1.5-0.9-3-1.3-4.6c-0.1-0.5-0.3-0.9-0.4-1.4c-5.7-22.2-6.3-45.2-6.3-68.1
	c0-2.7,0-5.4,0-8c0-9.2,0.1-18.6,0.3-27.9c0-2.4,0.1-4.8,0.1-7.2c0.1-6.1,0.3-12.3,0.6-18.4c0.1-1.7,0.1-3.4,0.2-5.1
	c0-1,0.1-2,0.1-2.9C163.1,345.2,163.3,341.7,163.6,338.2z"/>
<polygon class="st0" points="365.6,209.3 365.6,333.9 289.3,333.9 289.3,209.3 300.2,209.3 300.2,167.1 344.8,167.1 344.8,209.3 "/>
<rect x="289.3" y="338.2" class="st0" width="76.3" height="138.3"/>
<path class="st0" d="M289.3,480.8h76.3v115c-9,2.6-18.2,4.5-27.5,5.8l-2.3,0.3c-1.1,0.1-2.2,0.2-3.3,0.3s-2.2,0.2-3.4,0.3h-0.4
	c-0.5,0-1,0.1-1.5,0.1h-0.5c-0.6,0-1.2,0.1-1.8,0.1l0,0c-0.9,0-1.7,0.1-2.6,0.1c-0.4,0-0.7,0-1.1,0c-0.9,0-1.7,0-2.6,0h-1.9
	c-0.5,0-1,0-1.5,0l-1.9-0.1c-1,0-2.1-0.1-3.1-0.2l0,0l-1.9-0.1l-2.4-0.2c-1.7-0.2-3.4-0.3-5-0.6l-2-0.3l-1-0.1
	c-1.7-0.3-3.3-0.5-5-0.9c-1.2-0.2-2.4-0.5-3.7-0.7L289.3,480.8z"/>
<rect x="779.7" y="194.6" class="st0" width="62.9" height="139.4"/>
<polygon class="st0" points="842.6,338.2 842.6,476.5 530.3,476.5 530.3,416.9 696.7,416.9 696.7,452.1 779.7,452.1 779.7,338.2 "/>
<path class="st0" d="M843.6,629.1h-1v90.8c-11.3-1-22.5-2.2-33.7-3.9c-50.4-7.4-99.6-21.7-146.1-42.6c-13.4-6-26.6-12.6-39.4-19.8
	c-21.5-11.9-42.1-25.4-61.6-40.3c-4.9-3.8-9.8-7.6-14.5-11.5c-3.3-2.7-6.6-5.5-9.9-8.2c-2.3-1.9-4.6-3.7-7-5.5V480.8h248.6
	c-0.2-0.6-0.3-1.3-0.5-1.9c0.2,0.6,0.4,1.3,0.5,1.9h63.7v148.3C843,629.1,843.3,629.1,843.6,629.1z"/>
<path class="st0" d="M1006.7,184.2h-41v-12.7h18.4v-38c1.6,0.6,3.2,1.2,4.8,1.8v36.2h17.9V184.2z"/>
<path class="st0" d="M1105.5,333.9H904.2c0,0,0,0,0.1,0l-0.1,0h-37.3V194.6h10.6v103h48.3v-61h39.9v-48.1h41v48.1h39.9v61h58.8
	V333.9z"/>
<path class="st0" d="M866.9,338.2v138.3h238.6V338.2H866.9z M1170.3,639.4l0.3-109.5h-65.1v-49H866.9v240.5
	c19.6,0.8,39.2,0.6,58.7-0.7l0,0h0.3c9.3-0.6,18.6-1.4,27.9-2.6h0.2c49.3-5.7,97.6-18.6,143.2-38.2"/>
<path class="st0" d="M1199.1,480.8h55.7c-0.5,28.1-6.1,55.7-18.5,81.2c-10.3,21.2-24.5,39.7-41.4,55.8v-88h4.2V480.8z"/>
<path class="st0" d="M1254.8,476.5h-55.7V360.9h30.1C1244.8,397.4,1254.7,437.4,1254.8,476.5z"/>
<rect x="808.9" y="233.3" class="st0" width="33.7" height="43.7"/>
<rect x="808.9" y="323.9" class="st0" width="33.7" height="10.1"/>
<rect x="808.9" y="338.2" class="st0" width="33.7" height="29.4"/>
<rect x="808.9" y="414.4" class="st0" width="33.7" height="43.7"/>
<rect x="808.9" y="505" class="st0" width="33.7" height="43.7"/>
<path class="st0" d="M842.6,629.1c0.3,0,0.7,0,1,0.1L842.6,629.1v10.2h-33.7v-43.7h33.7V629.1z"/>
<path class="st0" d="M842.6,686.1v33.8c-11.3-1-22.5-2.2-33.7-3.9v-29.9H842.6z"/>
<rect x="530.3" y="473.3" class="st0" width="144.5" height="3.2"/>
<rect x="530.3" y="480.8" class="st0" width="144.5" height="12.3"/>
<rect x="530.3" y="533.4" class="st0" width="144.5" height="19.8"/>
<path class="st0" d="M674.8,593.5v19.8h-113c-4.9-3.7-9.8-7.6-14.5-11.5c-3.3-2.7-6.6-5.5-9.9-8.2L674.8,593.5z"/>
<path class="st0" d="M674.8,653.6v19.8h-11.9c-13.4-6-26.5-12.6-39.4-19.8L674.8,653.6z"/>
<rect x="925.6" y="351.6" class="st0" width="28.4" height="28.4"/>
<rect x="309.8" y="219.1" class="st0" width="28.4" height="28.4"/>
<rect x="309.8" y="285.1" class="st0" width="28.4" height="28.4"/>
<rect x="309.8" y="351.2" class="st0" width="28.4" height="28.4"/>
<rect x="309.8" y="417.3" class="st0" width="28.4" height="28.4"/>
<rect x="309.8" y="483.3" class="st0" width="28.4" height="28.4"/>
<rect x="309.8" y="549.4" class="st0" width="28.4" height="28.4"/>
<rect x="1034.1" y="351.6" class="st0" width="28.4" height="28.4"/>
<rect x="925.6" y="421.8" class="st0" width="28.4" height="28.4"/>
<rect x="1034.1" y="421.8" class="st0" width="28.4" height="28.4"/>
<rect x="925.6" y="491.9" class="st0" width="28.4" height="28.4"/>
<rect x="1034.1" y="491.9" class="st0" width="28.4" height="28.4"/>
<rect x="925.6" y="562" class="st0" width="28.4" height="28.4"/>
<rect x="1034.1" y="562" class="st0" width="28.4" height="28.4"/>
<rect x="925.6" y="632.2" class="st0" width="28.4" height="28.4"/>
<rect x="1034.1" y="632.2" class="st0" width="28.4" height="28.4"/>
<polygon class="st0" points="925.6,720.7 925.6,702.3 954,702.3 954,718.1 "/>
<path class="st0" d="M167.7,298.4v16.3h97.3v-16.3H167.7z M177.4,313.6h-7.9v-14.2h8L177.4,313.6z M187.1,313.6h-8v-14.2h8V313.6z
	 M196.8,313.6h-8v-14.2h8V313.6z M206.5,313.6h-8v-14.2h8L206.5,313.6z M216.2,313.6h-8v-14.2h8V313.6z M225.9,313.6h-8v-14.2h8
	V313.6z M235.5,313.6h-8v-14.2h8V313.6z M245.2,313.6h-8v-14.2h8V313.6z M254.9,313.6h-8v-14.2h8V313.6z M264.6,313.6h-8v-14.2h8
	V313.6z"/>
<path class="st0" d="M167.7,345.7V362h97.3v-16.3H167.7z M177.4,360.9h-7.9v-14.2h8L177.4,360.9z M187.1,360.9h-8v-14.2h8V360.9z
	 M196.8,360.9h-8v-14.2h8V360.9z M206.5,360.9h-8v-14.2h8L206.5,360.9z M216.2,360.9h-8v-14.2h8V360.9z M225.9,360.9h-8v-14.2h8
	V360.9z M235.5,360.9h-8v-14.2h8V360.9z M245.2,360.9h-8v-14.2h8V360.9z M254.9,360.9h-8v-14.2h8V360.9z M264.6,360.9h-8v-14.2h8
	V360.9z"/>
<path class="st0" d="M167.7,393.1v16.3h97.3v-16.3H167.7z M177.4,408.3h-7.9v-14.2h8L177.4,408.3z M187.1,408.3h-8v-14.2h8V408.3z
	 M196.8,408.3h-8v-14.2h8V408.3z M206.5,408.3h-8v-14.2h8L206.5,408.3z M216.2,408.3h-8v-14.2h8V408.3z M225.9,408.3h-8v-14.2h8
	V408.3z M235.5,408.3h-8v-14.2h8V408.3z M245.2,408.3h-8v-14.2h8V408.3z M254.9,408.3h-8v-14.2h8V408.3z M264.6,408.3h-8v-14.2h8
	V408.3z"/>
<path class="st0" d="M167.7,440.4v16.2h97.3v-16.2H167.7z M177.4,455.7h-7.9v-14.2h8L177.4,455.7z M187.1,455.7h-8v-14.2h8V455.7z
	 M196.8,455.7h-8v-14.2h8V455.7z M206.5,455.7h-8v-14.2h8L206.5,455.7z M216.2,455.7h-8v-14.2h8V455.7z M225.9,455.7h-8v-14.2h8
	V455.7z M235.5,455.7h-8v-14.2h8V455.7z M245.2,455.7h-8v-14.2h8V455.7z M254.9,455.7h-8v-14.2h8V455.7z M264.6,455.7h-8v-14.2h8
	V455.7z"/>
<path class="st0" d="M168.2,487.8c0.4,1.5,0.8,3.1,1.3,4.6v-3.5h8V503h-4.3c0.1,0.3,0.3,0.7,0.4,1h91.5v-16.2H168.2z M187.2,503h-8
	v-14.2h8V503z M196.8,503h-8v-14.2h8V503z M206.5,503h-8v-14.2h8L206.5,503z M216.2,503h-8v-14.2h8V503z M225.9,503h-8v-14.2h8V503z
	 M235.6,503h-8v-14.2h8V503z M245.3,503h-8v-14.2h8V503z M254.9,503h-8v-14.2h8V503z M264.6,503h-8v-14.2h8V503z"/>
<path class="st0" d="M190.8,535.1c0.2,0.3,0.5,0.7,0.8,1h5.3v6.8c0.6,0.7,1.1,1.4,1.7,2v-8.9h8v14.3h-3.2c0.3,0.3,0.6,0.7,1,1h60.8
	v-16.2H190.8z M216.2,550.4h-8v-14.2h8V550.4z M225.9,550.4h-8v-14.2h8V550.4z M235.5,550.4h-8v-14.2h8V550.4z M245.2,550.4h-8
	v-14.2h8V550.4z M254.9,550.4h-8v-14.2h8V550.4z M264.6,550.4h-8v-14.2h8V550.4z"/>
<path class="st0" d="M244.1,582.5c0.9,0.5,1.8,1,2.8,1.5v-0.5h8v4.5l1.7,0.8v-5.3h8v8.7c0.2,0.1,0.3,0.1,0.5,0.2v-9.8L244.1,582.5z"
	/>
<path class="st0" d="M904.2,333.9L904.2,333.9L904.2,333.9L904.2,333.9z M842.6,629.1L842.6,629.1h1H842.6z M778.3,478.9
	c0.2,0.6,0.3,1.3,0.5,1.9l0,0C778.7,480.2,778.5,479.5,778.3,478.9z M904.2,333.9L904.2,333.9L904.2,333.9L904.2,333.9z
	 M300.2,184.2v4.3h44.7v-4.3H300.2z M842.6,629.1L842.6,629.1h1H842.6z M778.3,478.9c0.2,0.6,0.3,1.3,0.5,1.9l0,0
	C778.7,480.2,778.5,479.5,778.3,478.9z M904.2,333.9L904.2,333.9L904.2,333.9L904.2,333.9z M842.6,629L842.6,629h1H842.6z
	 M778.3,478.9c0.2,0.6,0.3,1.3,0.5,1.9l0,0C778.7,480.2,778.5,479.5,778.3,478.9z"/>
<path class="st1" d="M420.5,456.4l-2.2,9.2c0,0-17.3-8.8-20.4-20s5.2-15.5,5.2-15.5l16.1,6.8L420.5,456.4z"/>
<path class="st2" d="M420.5,456.4l-2.2,9.2c0,0-17.3-8.8-20.4-20s5.2-15.5,5.2-15.5l16.1,6.8L420.5,456.4z"/>
<path class="st1" d="M323.1,769c0,0-16,5.9-27,6.6c-5.8,0.4-8.9-3.2-10.5-6.6c-0.9-1.9-1.4-4-1.6-6l1.4-15.8l0.8-8.4l23.4-6.1
	l3.3,10.1l0.3,0.8c1.3,3.4,6.7,17.1,6.5,20c0,1.5,0.6,2.9,1.6,4C321.8,768.1,322.5,768.6,323.1,769z"/>
<path class="st1" d="M432.4,761c0,0.5,0,1-0.1,1.4c0,0-34.2,5.7-41.2,0c-4-3.4-9.2-4.9-14.4-4.2c0,0-13.2,0.4-15.5-4
	c-0.9-1.8-0.7-5.4-0.1-8.9c0.6-3.3,1.4-6.5,2.3-9.7l0.5-0.4l3.1-2.5l36.9-1.1h0.3c-0.2,7.5,12.5,16.2,12.5,16.2
	C430.3,752.8,432.3,758.4,432.4,761z"/>
<path class="st2" d="M432.4,761c0,0.5,0,1-0.1,1.4c0,0-34.2,5.7-41.2,0c-4-3.4-9.2-4.9-14.4-4.2c0,0-13.2,0.4-15.5-4
	c-0.9-1.8-0.7-5.4-0.1-8.9c5.1,0.5,13.1,1.8,16.3,4.8c4.8,4.6,12.9,9.2,17.9,9.6C399.1,759.9,422.4,760.7,432.4,761z"/>
<path class="st2" d="M323.1,769c0,0-16,5.9-27,6.6c-5.8,0.4-8.9-3.2-10.5-6.7c4.1,1.4,9.7,2.8,12.7,1.5c3.5-1.6,16-2.6,23-3
	C321.9,768.1,322.5,768.6,323.1,769z"/>
<path class="st3" d="M348.9,294.4c-13.2-5.1-30.2-22.1-25.9-30c0.9-2,1.5-4.2,1.6-6.4c0.3-3,0.3-6,0.1-9c-0.3-4.9-0.9-9.8-1.8-14.6
	c0,0,41.2,0.9,38.8,7c-0.7,1.8-0.8,4.9-0.6,8.3s0.7,7.4,1.2,10.7c0.7,4.5,1.4,8,1.4,8s-2.5,3.5-4,3.7S367.9,301.7,348.9,294.4z"/>
<path class="st4" d="M328.5,615.6c-0.7,1.7-1.2,3.4-1.5,5.1c-0.8,4.8-1.1,9.7-0.7,14.6c0.4,7,0,53.9,0,53.9s-7.9,12.5-12.3,16.9
	s9,12.3,9,12.3c2,11.4-10.1,24.3-10.1,24.3c-12.3-14.9-27.2,3.7-27.2,3.7s-8.1-14-10.1-19s7.9-8.5,11.4-10.5s-0.2-14-0.2-14
	s-3-10.5-6.5-20.1s3.9-57.2,3.9-57.2s0.4-8.5,1.3-11.4c0.5-2.1,0.6-4.3,0.3-6.5c-0.1-0.7-0.1-1.3-0.2-1.8s-0.1-0.6-0.1-0.6l0.1-0.2
	l5-9.3C290.5,595.9,330.9,609.7,328.5,615.6z"/>
<path class="st4" d="M404.3,731.5c0,0-9-0.2-13.8,4s-28,0.9-27,0s0.9-7.7,0.9-7.7c-13.6-18.6-2-26.1-2-26.1s-6.1-29.2-7.2-40.1
	c-0.8-7.6-1.7-28-2.2-39.6c-0.2-5-0.4-8.4-0.4-8.4l11.1-2.2l1.4-0.3l26.8-5.4c0,0,0.7,5,1.2,9.1c0.2,1.7,0.4,3.5,0.4,5.3
	c-0.2,2,0,8.3,0,8.3l0.9,18.8c-0.6,2-0.9,4-0.9,6.1c0.2,2.4,3.7,36.6,3.7,36.6s6.1,20.4,4,21.9S404.3,731.5,404.3,731.5z"/>
<path class="st2" d="M362.4,251.2c-0.7,1.8-0.8,4.9-0.6,8.3c-11.3,6.8-25.4,6.5-36.4-0.7c-0.3-4.9-0.9-9.8-1.8-14.6
	C323.6,244.2,364.8,245.1,362.4,251.2z"/>
<path class="st3" d="M375.7,220.1c0,3.6-0.6,7.2-1.7,10.6c-5.9,18-25.2,27.8-43.2,21.9c-13.8-4.5-23.2-17.2-23.6-31.7
	c0-0.3,0-0.5,0-0.8c-0.3-18.9,14.7-34.5,33.6-34.8c18.9-0.3,34.5,14.7,34.8,33.6C375.7,219.3,375.7,219.7,375.7,220.1L375.7,220.1z"
	/>
<polygon class="st4" points="393.6,360.8 378.5,614.3 358.8,615.6 307.9,468.6 316.2,294.1 318,257.2 340.6,275.9 351.8,285 
	360.6,262.8 376.9,276.9 "/>
<path class="st2" d="M328,614.8c-0.7,1.7-1.2,3.4-1.5,5.1c-14.3-2.2-28.2-6.6-41.3-12.9l-0.3-0.1l0.1-1.6l0-0.8l5-9.3
	C290,595.1,330.4,608.9,328,614.8z"/>
<path class="st1" d="M364,618.6c-41,7-78.6-13.1-78.6-13.1l0.4-6.8c0,0,0.9-77.1-1.7-83s-4.6-35.9-3.1-40.5s-5.3-73.6-5.3-73.6
	l-1.1-28l-40.3-16.4l18-37.5c2.4-5.3,4.5-10.7,6.3-16.2c3.1-9.7,17.7-19.3,17.7-19.3s14.9-9.6,20.8-9.2s13.6-8.5,13.6-8.5
	c5.7-14.5,12-8,12-8c0,0.7-0.6,1-0.3,2.1c4.4,15.5,31.2,66.4,31.7,67.2l0,0l3.3,79.7l3.3,100.8L364,618.6z"/>
<path class="st1" d="M354,328.1c-4.4-1.8-27.8-28.5-27.8-28.5v-6.1c-0.9-2-5.9-0.8-10,0.6l1.8-36.9l2,1.7
	C324.4,274.4,353.5,327.2,354,328.1z"/>
<path class="st2" d="M286.8,461.6c0.5,0,28.5-2.9,28.5-2.9s16.9,33.3,15.8,41.4s-3.1,15.3-9.9,14s-36.6,1-36.6,1L286.8,461.6z"/>
<path class="st1" d="M285.4,458.9c0.5,0,28.5-2.9,28.5-2.9s16.9,33.3,15.8,41.4s-3.1,15.3-9.9,14s-36.6,1-36.6,1L285.4,458.9z"/>
<path class="st3" d="M306.5,443.2c0,0,25.7,13.8,26.2,18s-13.1-1.8-16-2.6c-1.9-0.5-3.9-0.8-5.9-0.9l-19.6,0.5L306.5,443.2z"/>
<circle class="st5" cx="345.8" cy="328.2" r="2.7"/>
<circle class="st5" cx="350.7" cy="445.1" r="2.7"/>
<circle class="st5" cx="348.5" cy="386.6" r="2.7"/>
<path class="st1" d="M411.8,457.2c0,0,1.8,2.8,0,4s0.2,4.4,0.2,4.4s-4.6,2.7-2.6,5.1s0.7,13.3,0.7,13.3l-5.5,9.1
	c0,0,0.3,5.9,0.4,13.8c0,12.4-0.7,29.9-4.8,37.8l0.5,65.3c0,0-19.4,7.1-35.5,4.9l-2.4-104.8c0,0,3.5-59.4,4.8-70.8
	c0.8-5.9,1.1-11.9,0.9-17.9c0,0-0.5-17.8-2.4-26.1c0,0-2-35.9-2.2-45.8c-0.1-4.8,0.2-18.6,0.4-31.8c0.3-14.4,0.7-28,0.7-28
	l-4.8-29.3c0,0,4.8,0,5.9,1.5c0.5,0.5,1,0.9,1.6,1.2l0,0c6.3,4.3,28.6,17.4,28.6,17.4s12.3,4.9,15.3,11.9s5,12,6.4,14
	s2.2,11.4,2.2,11.4s4.2,17.3,7.5,20.2s5.7,21.5,5.7,21.5l-29.2,23c0,0-2.6,38.3-3.1,39.7S411.8,457.2,411.8,457.2z"/>
<path class="st2" d="M375.7,296.3l2.6,7.7l-13.9,14c0.3-14.4,0.7-28,0.7-28l-4.8-29.3c0,0,4.8,0,5.9,1.5c0.5,0.5,1,0.9,1.6,1.2l0,0
	l11.8,34.1L375.7,296.3z"/>
<path class="st1" d="M375.7,296.3l2.6,7.7l-13.9,14c0.3-14.4,0.7-28,0.7-28l-4.8-29.3c0,0,4.8,0,5.9,1.5c0.5,0.5,1,0.9,1.6,1.2l0,0
	l11.8,34.1L375.7,296.3z"/>
<path class="st2" d="M375.6,219c0,3.6-0.6,7.2-1.7,10.6c-0.4,0.1-0.8,0-1.1-0.3c-0.3-9-4.7-17.5-10.1-24.6c-1.5-2.2-3.4-4.1-5.5-5.7
	c-2.1-1.6-4.8-2.4-7.5-2.1c-3,0.4-5.6,2.4-8.7,2.7c-4,0.3-7.6-2.4-11.5-2.6c-3.3,0-6.4,1.5-8.5,3.9c-2.1,2.5-3.6,5.3-4.5,8.4
	c-1.6,4.7-2.4,9.6-2.5,14.6c0,2.8-0.3,6.3-2.9,7.3c0.4-4.2-1-8.3-3.8-11.4l-0.1-0.1c0-0.3,0-0.5,0-0.8
	c-0.3-18.9,14.7-34.5,33.6-34.8c18.9-0.3,34.5,14.7,34.8,33.6C375.7,218.2,375.7,218.6,375.6,219L375.6,219z"/>
<path class="st6" d="M355.6,165.8c-5.2-2.4-11.1-2.9-16.6-1.3c-2.8,0.8-5.4,2.1-8.2,2.8c-6,1.4-13-0.1-18.1,3.4
	c-2.9,2-4.6,5.2-6.2,8.2l-4,7.6c-2.2,4.2-4.4,8.4-5.3,13c-0.9,4.6-0.4,9.7,2.5,13.4c2.1,2.7,5.2,4.4,7.5,6.9
	c2.8,3.1,4.1,7.2,3.8,11.4c2.6-1,2.9-4.5,2.9-7.3c0.1-5,1-9.9,2.5-14.6c0.9-3.1,2.5-6,4.5-8.4c2.1-2.5,5.2-3.9,8.5-3.9
	c4,0.1,7.6,2.9,11.5,2.6c3-0.2,5.7-2.3,8.7-2.7c2.7-0.3,5.3,0.5,7.5,2.1c2.1,1.6,4,3.5,5.5,5.7c5.5,7.2,9.9,15.6,10.1,24.6
	c1.1,0.8,2.8-0.2,3.3-1.5s0.6-2.8,1.3-4c0.8-1.4,2.4-2.2,3.6-3.2c3.1-2.7,3.9-7.2,3.8-11.3s-0.9-8.3-0.1-12.3
	c0.5-2.5,1.5-4.8,2.1-7.2s0.6-5.2-0.7-7.3c-2-3.1-6.2-3.7-9.9-4c-4.2-0.4-7.9,0.1-10.6-3.4c-1.2-1.8-2.7-3.6-4.2-5.1
	C361,169.3,355.6,166,355.6,165.8z"/>
<path class="st2" d="M247.2,377.1l-10.5-19.3l-3.3,29.8c0,0,1.8,13.2,1.5,15.3s7.5,20.2,7.5,20.2s26.1,46.5,36.8,48.9l36-25.8
	l-9.6-12.1c0,0-3.3-1.3-4.1,0c0,0-17.8-30.5-19.6-32.8s-1.5-6.6-1.5-6.6s-2.8-2.9-1.8-5.7s-5.3-12.3-5.3-12.3l5.7-5.3L247.2,377.1z"
	/>
<path class="st1" d="M237,355.1l-2.8,2.2l-3.3,29.8c0,0,1.8,13.2,1.5,15.3s7.5,20.2,7.5,20.2s26.1,46.5,36.8,48.9l36.1-25.8
	l-9.6-12.1c0,0-3.3-1.3-4.1,0c0,0-17.8-30.5-19.6-32.8s-1.5-6.6-1.5-6.6s-2.8-2.9-1.8-5.7s-5.3-12.3-5.3-12.3l5.7-5.3L237,355.1z"/>
<path class="st1" d="M409.4,470.8c2,2.4,0.7,13.3,0.7,13.3l-5.5,9.1c0,0,0.3,5.9,0.4,13.8l-9.5,3c-2.8,0.9-5.9-0.7-6.8-3.6
	c-0.2-0.6-0.3-1.2-0.2-1.8l1.6-51.8l21.7,8.3c-1.9,1.3,0.2,4.4,0.2,4.4S407.4,468.4,409.4,470.8z"/>
<path class="st3" d="M416.6,446.2c0,0-1.5,9.4-5.1,9.9s-5.3,15.2-9,14.7s-1.2-13.6-1.1-16.2s-4-13.1-0.9-15.5s12.9,0,12.9,0
	L416.6,446.2z"/>
<path class="st2" d="M424.7,374.4l6.9-14c0,0,2.8,10.7,2.8,16.4s3.9,6.3,3.9,6.3s4.2,5,2,8.6s-3.1,12.7-3.1,12.7s0.7,17.3-2.6,19.7
	s-4,8.1-4,8.1s-6.1,10.9-5.9,13.4s-8.5,20.1-8.5,20.1s4.2-21.7-20.4-31.1c0,0-0.2-7.4,1.6-9.4s4.7-2.9,2.9-13.1s-0.5-22.4-0.5-24.9
	s5.5-17.7,5.5-17.7L424.7,374.4z"/>
<path class="st1" d="M427.4,357.9l6.1,2c0,0,2.8,10.7,2.8,16.4s3.9,6.3,3.9,6.3s4.2,5,2,8.6s-3.1,12.7-3.1,12.7s0.7,17.3-2.6,19.7
	s-4,8.1-4,8.1s-6.1,10.9-5.9,13.4s-8.5,20.1-8.5,20.1s4.2-21.7-20.4-31.1c0,0-0.2-7.4,1.7-9.4s4.7-2.9,2.9-13.1s-0.5-22.4-0.5-24.9
	s5.5-17.7,5.5-17.7L427.4,357.9z"/>
<g class="st7">
	<path d="M381.1,218.3c-1.2,1.1-2.8,1.8-3.6,3.2c-0.7,1.2-0.7,2.7-1.3,4s-2.2,2.4-3.3,1.5c-0.3-9-4.7-17.5-10.1-24.6
		c-1.5-2.2-3.4-4.1-5.5-5.7c-2.1-1.6-4.8-2.4-7.5-2.1c-3,0.4-5.6,2.4-8.7,2.7c-4,0.3-7.6-2.4-11.6-2.6c-3.3,0-6.4,1.5-8.5,3.9
		c-2.1,2.5-3.6,5.3-4.5,8.4c-1.6,4.7-2.4,9.6-2.5,14.6c-0.1,2.8-0.3,6.3-2.9,7.3c0.1,0.7,0.1,1.5,0,2.2c2.6-1,2.9-4.5,2.9-7.3
		c0.1-5,1-9.9,2.5-14.6c0.9-3.1,2.5-6,4.5-8.4c2.1-2.5,5.2-3.9,8.5-3.9c4,0.1,7.6,2.9,11.6,2.6c3-0.2,5.7-2.3,8.7-2.7
		c2.7-0.3,5.3,0.5,7.5,2.1c2.1,1.6,4,3.5,5.5,5.7c5.5,7.2,9.9,15.6,10.1,24.6c1.1,0.8,2.8-0.2,3.3-1.5s0.6-2.8,1.3-4
		c0.8-1.4,2.4-2.2,3.6-3.2c3.1-2.7,3.9-7.2,3.8-11.3c0-0.1,0-0.3,0-0.4C384.7,212.4,383.8,216,381.1,218.3z"/>
	<path d="M307.3,217.6c-2.3-2.5-5.4-4.2-7.5-6.9c-1.8-2.4-2.8-5.2-2.9-8.2c-0.3,3.7,0.7,7.4,2.9,10.4c2.1,2.7,5.2,4.4,7.5,6.9
		c2.2,2.5,3.5,5.6,3.8,8.9C311.4,224.7,310,220.7,307.3,217.6z"/>
	<path d="M386.9,187.4c-0.6,2.4-1.6,4.8-2.1,7.2c-0.3,1.7-0.4,3.3-0.3,5c0-1,0.1-1.9,0.3-2.8c0.5-2.5,1.5-4.8,2.1-7.2
		c0.3-1.4,0.5-2.8,0.3-4.1C387.1,186.1,387,186.8,386.9,187.4z"/>
</g>
<ellipse class="st0" cx="124.4" cy="744.9" rx="97.4" ry="15.7"/>
<rect x="121.3" y="445.1" class="st8" width="6.3" height="141.2"/>
<path class="st5" d="M167,585.9l-0.4,6.4l-0.6,9l-0.2,3.7l-0.6,9l-0.2,3.7l-0.6,9l-6.3,102.1c-0.6,9.1-8.1,16.2-17.3,16.2H108
	c-9.1,0-16.7-7.1-17.2-16.2l-6.3-102.1l-0.6-9l-0.2-3.7l-0.6-9l-0.2-3.7l-0.6-9l-0.4-6.4c-0.3-5,3.5-9.2,8.5-9.5c0.2,0,0.3,0,0.5,0
	h67.2c4.9,0,8.9,4.1,8.9,9C167,585.5,167,585.7,167,585.9z"/>
<polygon class="st9" points="166.6,592.2 166,601.2 82.9,601.2 82.3,592.2 "/>
<polygon class="st9" points="165.8,604.9 165.3,613.9 83.6,613.9 83.1,604.9 "/>
<polygon class="st9" points="165,617.7 164.5,626.6 84.4,626.6 83.9,617.7 "/>
<path class="st4" d="M72.7,498c36.5,26.4,51.8,67.7,51.8,67.7s-44-1.5-80.5-27.9C7.4,511.4-7.8,470.1-7.8,470.1S36.2,471.6,72.7,498
	z"/>
<path class="st10" d="M-7.8,470.1c0,0,45.7,25.3,60.3,46.3c14.6,21,71.9,49.3,71.9,49.3"/>
<path class="st4" d="M96.3,444.8c19.9,14.4,28.2,36.9,28.2,36.9s-23.9-0.8-43.8-15.2s-28.2-36.9-28.2-36.9S76.4,430.4,96.3,444.8z"
	/>
<path class="st10" d="M52.5,429.6c0,0,24.9,13.8,32.8,25.2s39.2,26.8,39.2,26.8"/>
<path class="st4" d="M153.3,480.5c-22.8,25.1-27.7,57.9-27.7,57.9s32.2-7.9,55-33c22.8-25.1,27.7-57.9,27.7-57.9
	S176.2,455.5,153.3,480.5z"/>
<path class="st10" d="M208.3,447.6c0,0-29.7,25.7-37.3,43.4s-45.4,47.4-45.4,47.4"/>
<linearGradient id="SVGID_1_" gradientUnits="userSpaceOnUse" x1="1336.1157" y1="-41.8183" x2="1336.1157" y2="520.2089" gradientTransform="matrix(1 0 0 -1 -47.24 723.2598)">
	<stop  offset="0" style="stop-color:#808080;stop-opacity:0.25"/>
	<stop  offset="0.54" style="stop-color:#808080;stop-opacity:0.12"/>
	<stop  offset="1" style="stop-color:#808080;stop-opacity:0.1"/>
</linearGradient>
<path class="st11" d="M1395.1,469.7c0,0-16.5-82.1-10.2-92.4c0,0,0.2-9.5-0.2-21.6c0-0.5,0-0.9,0-1.4c1.1,0.7,2.3,1.4,3.5,2
	c5.8,3,12.5,3.9,18.9,2.4l-5-5.6c-1.2-1.3-2.4-2.8-2.7-4.5s0.5-3.3,1.1-4.9c4.8-12,5-27.1-4.2-36.2c-7.7-7.7-9.6-17.6-18-24.7
	c-6.1-5.1-9.5-12.7-12.7-20c-2.7-6.2-5.4-12.4-6.9-18.9c-1.2-5.1-1.7-10.4-3.3-15.4s-4.7-9.8-9.6-12.1c-1.7-0.8-3.6-1.2-5.2-2.3
	c-2.1-1.4-3.3-3.6-4.8-5.6c-7.6-10-32.9-4.1-44.9,0c-3.3,1-6.3,2.7-8.9,4.9l0.1-0.2c0.1-0.1,0.2-0.3,0.3-0.5
	c-1.3,1.1-2.4,2.3-3.4,3.8c-1.8,2.8-2.5,6-3.9,9c-1.8,3.5-11.5,13.5-7.3,17.5c0.3,0.3,0.6,0.5,1,0.6c1.6,0.7,3.3,0.8,5,0.5l-0.2,0.4
	c-1.4,3.5-2.2,7.3-2.2,11.1c0,16.4,13.5,29.8,30.3,29.8c3.1,0,6.3-0.5,9.3-1.4c0.1,0.4,0.1,0.8,0.2,1.1c0,0.1,0.1,0.3,0.1,0.5l0,0
	l-0.5,0.7c0,0-0.1-0.1-0.1-0.1l-15.7,21.9c-2.4,1.7-16.2,11.7-17,19.2c-0.8,8.2-1.6,17.8-1.6,17.8l-0.1,2.1c-1.4,1.2-3.2,1.7-5,1.4
	c-4.9-0.8-4.9,18-4.9,18s-3.3,3-5.5,0.4s-8.2,6.2-8.2,6.2l-37.1,1.6l0,0l-0.8,0l-2-6.2c-0.4-1.4-1.9-2.1-3.3-1.7
	c-0.2,0.1-0.3,0.1-0.4,0.2l-0.1,0.1l-0.3,0.2l-0.1,0.1c-0.1,0.1-0.1,0.1-0.2,0.2l-0.1,0.1l-0.1,0.1l0,0c-0.5,0.6-0.6,1.5-0.4,2.2
	l1.7,5.3c-7.2,1.4-14.5,5.5-8.5,16.7l-30.3-5.6l9.8,8.2l50.5,10.4c-0.7,1.2-0.2,2.9,1.9,5.4c9,10.6,25.4,13.4,32,14.2
	c1.7,3.9,3.9,7.6,6.5,11l-0.6,10.5c0,0-16.7,80.3-19.8,84.3c1.5-1.8,3-3.6,4.2-5.6c-4.8,16.5-11.6,39.1-13.4,42.4
	c-2.9,5.4-5.5,27.2-2.2,28.7c1,0.4,3.9,0.2,7.9-0.1v1.8l-0.2,68.6c0,0,0.8,42.1-1.4,46.1S1243,725,1243,725s-9,16.6-16.1,23.3
	c0,0.1-0.1,0.1-0.2,0.1l-0.2-1.6c0,0-8.6,10.8-27.5,10.2c0,0-11.4,7.4,5.5,7.8c16.9,0.4,38.5-0.6,38.5-0.6s15.1-23,27.7-20v17.4h3.9
	V744c3.6-2.4,6.1-6.2,6.9-10.4c0.7-4.4-1-8.9-4.5-11.7c-1.6-1.4-2.4-3.4-2.5-5.5l-0.1,0.1c0-0.3-0.1-0.7-0.1-1.1
	c-1.1-9-2.5-27.6,2.4-41.3c6.7-18.8,8.8-45.1,3.9-60.7c-1.6-5-2.9-10.1-3.9-15.2c-0.1-0.7-0.2-1.3-0.3-1.8c3.3,0.5,6.7,1.1,9.9,2
	c11.3,3.1,36.2,3.7,57.4,3.5c0.1,0.6,0.1,1.2,0.2,1.8c0.4,4.2,1.2,8.4,2.4,12.5c2.7,8,3.9,43.3,3.9,43.3s3.4,29,1.6,40.8
	c-1,6.6-2,13.2-2.6,19.8v0.1c0,0-5.6,16-9.7,24.7c-0.1,0.2-0.2,0.4-0.3,0.7c-1.1,0.1-2.2,0.3-3.2,0.7c0,0-5.5,11-11,12.8
	s-3.7,7.8,8.8,5.6c12.4-2.2,31.2-4,31.2-4l0.8-11.2l3.8-4.8l-1,11.2l4.1-0.8l-0.5-13.6l6.2-7.8c0,0,7.6-6.7-3.7-19.9v0.3
	c-0.1-0.2-0.2-0.4-0.4-0.6v-0.1c-1.9-2.9-3.3-8.2-0.6-17.8c4.9-17.2,7.8-32.8,7.8-32.8s10.9-41.9-2.2-61.7h0.6
	c-1.3-2.8-2.3-5.7-2.8-8.8c-0.1-0.4-0.1-0.7-0.2-1.1c9.7-0.6,19.3-2.3,27.1-6.1C1403.7,584.9,1399,485.5,1395.1,469.7z
	 M1271.6,400.4v0.2l-2,0.1L1271.6,400.4z M1264.7,401.4c-0.3,0.1-0.6,0.2-0.9,0.4c-0.9,1.2-1.4,2.6-1.6,4.1l-3.1-0.7
	c0,0-2.2-0.5-5.3-1l-1.5-1.5C1256.4,402.4,1260.6,401.9,1264.7,401.4z"/>
<polygon class="st12" points="1369.4,744.6 1368.2,758.8 1372.2,758 1371.6,742.6 "/>
<path class="st13" d="M1276.3,680.4c-4.8,13.7-3.4,32.2-2.4,41.2c0.4,3.3,0.8,5.3,0.8,5.3s-7.2,16.4-7.8,17s-21.2,13.2-21.2,13.2
	l-14.4,8.4c0,0-14.6-6.4-7.6-8.6c1.4-0.6,2.7-1.5,3.8-2.6c7-6.7,15.8-23.2,15.8-23.2s0.6-8.4,2.8-12.4c2.2-4,1.4-45.9,1.4-45.9
	l0.2-68.3v-8.9l27.3,0.2c0.2,3,0.6,6,1.2,9c1,5.1,2.3,10.2,3.8,15.2C1284.8,635.5,1282.8,661.6,1276.3,680.4z"/>
<path class="st2" d="M1272.3,723.9c0,0-7.2,16.4-7.8,17s-21.2,13.2-21.2,13.2l-14.4,8.4c0,0-14.6-6.4-7.6-8.6
	c1.4-0.6,2.7-1.5,3.8-2.6l0.6,4.4l4.8-0.2l41-36.9C1271.9,721.9,1272.3,723.9,1272.3,723.9z"/>
<path class="st12" d="M1274.8,716.4l-41.2,37.1l-4.8,0.2l-1-7c0,0-8.4,10.8-27,10.2c0,0-11.2,7.4,5.4,7.8
	c16.6,0.4,37.7-0.6,37.7-0.6s14.8-23,27.2-20v17.4h3.8v-17.5c3.6-2.4,6-6.2,6.7-10.4c0.7-4.4-1-8.8-4.4-11.7
	C1275.7,720.4,1274.8,718.4,1274.8,716.4z"/>
<path class="st13" d="M1371.7,695.6c-2.7,9.5-1.2,14.8,0.6,17.7v0.1c2.3,3.5,4,7.5,4.8,11.7l0.2,0.9l-18.8,27.3l-10.2,4
	c0,0-16.4-5.6-13.4-7.2c0.8-0.4,1.9-2.5,3.3-5.3c4-8.7,9.5-24.6,9.5-24.6V720c0.6-6.6,1.5-13.2,2.5-19.7c1.8-11.8-1.5-40.7-1.5-40.7
	s-1.2-35.1-3.8-43.1c-1.2-4.1-2-8.2-2.3-12.4c-0.5-5-0.7-9.1-0.7-9.1s10.8-15,30.5,1.2c1.6,1.3,3,2.8,4.1,4.5
	c13.7,19.4,2.7,62.2,2.7,62.2S1376.5,678.4,1371.7,695.6z"/>
<path class="st2" d="M1377.9,726.5l-18.8,27.3l-10.2,4c0,0-16.4-5.6-13.4-7.2c0.8-0.4,1.9-2.5,3.3-5.3c6.9-0.1,10.5,6.5,10.5,6.5
	l8.8-1.4c0,0,11.6-22.8,14.2-24.2s0.4-10.4,0.4-10.4v-2.3c0.1,0.1,0.1,0.2,0.2,0.2v0.1c2.3,3.5,4,7.5,4.8,11.7L1377.9,726.5z"/>
<path class="st12" d="M1349.4,751.9c0,0-5-9.2-14.6-5.8c0,0-5.4,11-10.8,12.8s-3.6,7.8,8.6,5.6s30.5-4,30.5-4l0.8-11.2l12.4-15.8
	c0,0,7.4-6.7-3.6-19.9v2.3c0,0,2.2,9-0.4,10.4s-14.1,24.2-14.1,24.2L1349.4,751.9z"/>
<path class="st2" d="M1275.1,595.7c0.2,3,0.6,6,1.2,9c-11.3-1.7-21.7-0.8-28.6-0.3v-8.9L1275.1,595.7z"/>
<path class="st2" d="M1377.7,602.8c0,0-16,0.8-35.1,0.9c-0.5-5-0.7-9.1-0.7-9.1s10.8-15,30.5,1.2c1.6,1.3,3,2.8,4.1,4.5
	C1377,601.1,1377.3,602,1377.7,602.8z"/>
<path class="st12" d="M1377.7,601.4c0,0-70.1,3.4-91.4-2.6s-42.5-0.8-45.7-2.2s-0.6-23.2,2.2-28.5c2.8-5.4,18.2-59.9,18.2-59.9
	l14.8-77.1l15.6-4.3l1.1-0.3l27.1-7.5l19.9-5.5c0,0,39.5,154.3,36.1,165.7c-1.2,4.4-1.4,8.9-0.6,13.4
	C1375.4,595.6,1376.4,598.6,1377.7,601.4z"/>
<path class="st14" d="M1209.1,374.8c0,0-14,15-3.4,23.4s17.6,0.8,17.6,0.8L1209.1,374.8z"/>
<path class="st2" d="M1207.8,374.4c0,0-14,15-3.4,23.4s17.6,0.8,17.6,0.8L1207.8,374.4z"/>
<path class="st13" d="M1336.4,286c0,0-1.6,1.6-4.1,3.9c-3.5,3.3-8.7,8.1-13.3,12.1c-6.4,5.6-11.7,9.7-9.8,6.2s1.5-9.6,0.6-15.3
	c-0.1-0.4-0.1-0.8-0.2-1.1c-0.8-4.2-1.8-8.3-3.1-12.4c0,0,10.3-13.4,16.1-18.6c2.1-2,3.6-2.8,3.7-1.4c0.1,1.9,1.5,6,3.2,10.4
	c0,0.1,0.1,0.3,0.2,0.4c1.2,3,2.5,6.1,3.6,8.7C1335,283,1336.4,286,1336.4,286z"/>
<path class="st2" d="M1327,268.9c-2,10.6-9.6,19.4-19.9,22.8c-0.8-4.6-1.9-9.1-3.3-13.5c0,0,19.5-25.1,19.8-20.1
	C1323.7,260.1,1325.2,264.3,1327,268.9z"/>
<path class="st2" d="M1309.7,295l2.5-3.5c0,0,1.7,10.2,7.8,5.7s6.4,33.8,6.4,33.8l-6.6,98.5l-47.6-2.9l1.3-47.6l5.4-24l13.3-34.9
	l7.9-11.5L1309.7,295z"/>
<path class="st12" d="M1325.5,329.9l-6,89.1l-0.6,9.4l-26.6-1.6l-1-0.1l-20-1.2l1.3-47.6l5.4-24l13.3-34.9l7.9-11.5l9.4-13.6
	l2.5-3.5c0,0,1.7,10.2,7.8,5.7l0.1-0.1l0,0C1325.2,292.2,1325.5,329.9,1325.5,329.9z"/>
<path class="st1" d="M1279,345.9c0,0-2.4,5-7.2,4.2c-4.8-0.8-4.8,18-4.8,18s-3.2,3-5.4,0.4c-2.2-2.6-8,6.2-8,6.2l-36.3,1.6
	c0,0,16.2,7.4,13,29.8c0,0,54.9-3.4,56.7-8.6C1288.8,392.2,1279,345.9,1279,345.9z"/>
<path class="st15" d="M1278.7,345.6c0,0-2.4,5-7.2,4.2c-4.8-0.8-4.8,18-4.8,18s-3.2,3-5.4,0.4c-2.2-2.6-8,6.2-8,6.2L1217,376
	c0,0,16.2,7.4,13,29.8c0,0,54.9-3.4,56.7-8.6C1288.5,392,1278.7,345.6,1278.7,345.6z"/>
<polygon class="st1" points="1172.9,388.7 1182.5,396.9 1261.4,413.5 1251.6,403.5 "/>
<path class="st1" d="M1308.8,296.5c-1.3,2-5.1,12.2-8.2,21.2c-2.6,7.5-4.8,14-4.8,14s-5.1,33.1-7.7,39.1s-1.2,29.4-1.2,29.4
	l-9.7,57.7c0,0-4.4,29.8-11.2,47.5c-6.7,17.5-14.1,25.7-14.4,25.9c3-4.1,19.3-84,19.3-84l5.4-100.8c0,0,0.8-9.6,1.6-17.8
	s17-19.4,17-19.4l15.6-22.2C1312.3,289.3,1311.2,292.9,1308.8,296.5z"/>
<path class="st13" d="M1269.3,425.6c0,0-23-1-34.1-14.4s25.8-5.3,25.8-5.3l9.6,2.2L1269.3,425.6z"/>
<path class="st2" d="M1375.5,579.2c-1.2,4.4-1.4,8.9-0.6,13.4c-25.1,1.8-51.9-5-51.9-5c-5,4.6-18.2,11.4-18.2,11.4l-7.2-89
	c-4.6-12-6.4-74.9-6.4-74.9s0.4-3.3,1-8.2c0-0.1,0-0.2,0.1-0.4c1.8-13.8,5.3-39.6,7.1-43.1c2.4-4.8-7.4-17.6-7.4-17.6l4.5-38
	l0.5-4.6c9.4-4.2,16.6-17.6,16.6-17.6l5.5-9.7l0,0c6-3.9,6.3,33.9,6.3,33.9l-6,89.1l19.9-5.5
	C1339.3,413.5,1378.9,567.8,1375.5,579.2z"/>
<path class="st1" d="M1402.2,584.3c-27.3,13.6-77.1,1-77.1,1c-5,4.6-18.2,11.4-18.2,11.4l-7.2-89c-4.6-12-6.4-74.9-6.4-74.9
	s5.8-46.9,8.2-51.7c0.7-1.4,0.4-3.5-0.5-5.7c-4.1-10.7-5.6-22.1-4.4-33.5l1.9-16.3l0.5-4.6c9.4-4.2,16.6-17.6,16.6-17.6l5-8.8
	l9.2-16.1l4.4-7.6l0.7,0.7l5.7,5.1c0,0,2.4,2,6,5c7.8,6.6,21.4,18.2,28.3,25.3c6.1,6.3,8.1,30.6,8.6,48.9
	c0.4,12.1,0.2,21.5,0.2,21.5c-6.2,10.2,10,92,10,92C1397.6,485.3,1402.2,584.3,1402.2,584.3z"/>
<path class="st15" d="M1348.2,302.5c0,0-18.8,35.7-16.6,49.3c2.2,13.6,8.4,29,5.4,32.5c-2.1,2.8-5.3,4.4-8.8,4.4
	c-3,0.2-11,5.8-11,6.4s-7.4,0.6-14,3.4s-16.4,4.4-16.4,4.4s-19-0.6-20.8,1.2s-3.6,12.6,0.2,21.2s8,15,11.2,16.2
	c3.2,1.2,23.4-5.6,39.7-7.2s34.1-14.6,34.1-14.6s19.6-7,23-18.8s-4.2-76.5-4.2-76.5S1364.4,294.3,1348.2,302.5z"/>
<path class="st15" d="M1346.4,301.3c0,0-18.8,35.7-16.6,49.3c2.2,13.6,8.4,29,5.4,32.5c-2.1,2.8-5.3,4.4-8.8,4.4
	c-3,0.2-11,5.8-11,6.4s-7.4,0.6-14,3.4s-16.4,4.4-16.4,4.4s-19-0.6-20.8,1.2s-3.6,12.6,0.2,21.2c3.8,8.6,8,15,11.2,16.2
	c3.2,1.2,23.4-5.6,39.7-7.2s34.1-14.6,34.1-14.6s19.6-7,22.9-18.8s-4.2-76.5-4.2-76.5S1362.5,293.1,1346.4,301.3z"/>
<path class="st1" d="M1348.2,302.5c0,0-18.8,35.7-16.6,49.3c2.2,13.6,8.4,29,5.4,32.5c-2.1,2.8-5.3,4.4-8.8,4.4
	c-3,0.2-11,5.8-11,6.4s-7.4,0.6-14,3.4s-16.4,4.4-16.4,4.4s-19-0.6-20.8,1.2s-3.6,12.6,0.2,21.2s8,15,11.2,16.2
	c3.2,1.2,23.4-5.6,39.7-7.2s34.1-14.6,34.1-14.6s19.6-7,23-18.8s-4.1-76.5-4.1-76.5S1364.3,294.4,1348.2,302.5z"/>
<path class="st2" d="M1347.8,398.4c0,0-15-3-9.8,2s5.2,9.4,11.6,9.2S1347.8,398.4,1347.8,398.4z"/>
<path class="st2" d="M1373.1,505.9c0,0-6.8,4.6,6.2,15.2C1392.3,531.7,1373.1,505.9,1373.1,505.9z"/>
<path class="st2" d="M1360.2,543.7c0,0.6-2.4,22,6.6,27.3C1375.7,576.4,1360.2,543.7,1360.2,543.7z"/>
<path class="st13" d="M1217.6,375.9c-7.2,0.2-22.9,2.5-14.8,17.6c7.2,13.4,19.2,4.4,26-2.4C1227.2,384.9,1223.1,379.4,1217.6,375.9z
	"/>
<path class="st13" d="M983.9,392.4L983.9,392.4z"/>
<path class="st13" d="M1205.4,388.4l0.3-0.3L1205.4,388.4z"/>
<path class="st2" d="M1343.6,283.4c-7.7,5.2-14.1,9.7-15.4,10.6c-3.4,2.5-10,17.5-14.2,25.2c-3.4,6.1-14.3,7.7-18.5,8.1l0.5-4.6
	c9.4-4.2,16.6-17.6,16.6-17.6l18.6-32.5l6.4,5.8C1337.6,278.4,1340,280.4,1343.6,283.4z"/>
<path class="st16" d="M1345.8,282.8c-7.7,5.2-14.1,9.7-15.4,10.6c-3.4,2.5-10,17.5-14.2,25.1c-3.4,6.1-14.3,7.7-18.5,8.1l0.5-4.6
	c9.4-4.2,16.6-17.6,16.6-17.6l18.6-32.5l6.4,5.8C1339.8,277.7,1342.2,279.7,1345.8,282.8z"/>
<path class="st13" d="M1329,254.4c0,6-1.8,11.9-5.2,16.8c-9.3,13.5-27.7,16.9-41.2,7.6c-13.5-9.3-16.9-27.7-7.6-41.2
	s27.7-16.9,41.2-7.6C1324.2,235.5,1329,244.7,1329,254.4z"/>
<path class="st2" d="M1388,337.9c-4.1-2.5-7.4-6.1-9.6-10.3c-1.7-3.3-2.8-7.1-5.6-9.5c-2.6-2.1-6-2.6-9.2-3.5
	c-10.5-3.1-19.3-12.7-19.7-23.7c-0.2-5.2,1.5-10.3,0.7-15.4c-0.4-2.9-1.6-5.6-3.3-8c-0.9-1.1-1.8-2.1-2.9-3.1
	c-1.4-1.3-2.9-2.6-4.2-4c-0.8-0.9-1.5-1.8-2.1-2.9c-0.5-0.8-0.9-1.7-1.2-2.6c-2-6.1-0.2-13.4-2.4-19.6l-0.1-0.3
	c-0.8-2.2-2.5-4.4-4.9-4.6s-4.4,1.8-6.6,2.6c-4.7,1.8-9.8-1.3-13.7-4.4c-3.9-3.2-8.3-6.8-13.3-6.1c-3.3,0.5-5.9,2.7-8.9,3.9
	c-0.7,0.3-1.4,0.5-2.1,0.6c6.1-15.2,23.4-22.6,38.6-16.5c11.2,4.5,18.6,15.4,18.6,27.5c0,2.1-0.2,4.2-0.7,6.2c0,0.1,0.1,0.3,0.2,0.4
	c1.2,3,2.5,6.1,3.6,8.7l5.7,5.1c0,0,2.4,2,6,5c7.8,6.6,21.4,18.2,28.3,25.3C1385.5,295.2,1387.4,319.5,1388,337.9z"/>
<path class="st17" d="M1275.6,227.4c1.4-2.9,2.1-6.2,3.8-8.9c2.5-4,6.9-6.6,11.4-8.1c11.8-4,36.6-9.9,44,0c1.5,2,2.7,4.2,4.7,5.6
	c1.5,1,3.4,1.5,5.1,2.3c4.7,2.2,7.8,7.1,9.4,12s2.1,10.2,3.3,15.3c1.5,6.5,4.2,12.7,6.8,18.9c3.1,7.3,6.4,14.8,12.4,19.9
	c8.2,7,10,16.9,17.6,24.6c9,9.1,8.7,24.2,4.1,36.1c-0.6,1.6-1.3,3.2-1.1,4.9s1.5,3.2,2.7,4.5l4.9,5.5c-11.6,2.8-24.8-3.3-30.2-13.9
	c-1.7-3.3-2.8-7.1-5.6-9.5c-2.6-2.1-6-2.6-9.2-3.5c-10.5-3.1-19.3-12.7-19.7-23.7c-0.2-5.1,1.4-10.3,0.7-15.4
	c-0.4-2.9-1.6-5.7-3.3-8c-2.8-3.6-6.9-6-9.1-10c-3.8-6.7-0.9-15.4-3.6-22.6c-0.8-2.2-2.5-4.4-4.9-4.6s-4.4,1.8-6.6,2.6
	c-4.7,1.8-9.7-1.3-13.7-4.4s-8.3-6.8-13.3-6.1c-3.3,0.5-5.9,2.7-8.9,3.9c-2.2,0.9-6.8,1.6-8.7-0.3
	C1264.3,240.8,1273.9,230.9,1275.6,227.4z"/>
<path class="st2" d="M1379.7,342c-1.7-3.3-2.8-7.1-5.6-9.4c-2.6-2.1-6-2.6-9.2-3.5c-10.5-3.1-19.3-12.7-19.7-23.7
	c-0.2-5.1,1.5-10.3,0.7-15.4c-0.4-2.9-1.6-5.6-3.3-8c-2.8-3.6-6.9-6-9.1-10c-3.8-6.7-0.9-15.4-3.7-22.6c-0.8-2.2-2.5-4.4-4.9-4.6
	s-4.4,1.8-6.6,2.7c-4.7,1.8-9.8-1.3-13.7-4.4s-8.3-6.8-13.3-6.1c-3.3,0.5-5.9,2.7-8.9,3.9c-2.2,0.9-6.8,1.6-8.8-0.2
	c-4.1-4,5.5-13.9,7.2-17.4c1.4-2.9,2.1-6.2,3.9-8.9c0.1-0.1,0.2-0.3,0.3-0.5c-1.3,1.1-2.4,2.3-3.3,3.7c-1.7,2.8-2.4,6-3.8,8.9
	c-1.7,3.5-11.3,13.4-7.2,17.4c2,1.9,6.5,1.1,8.7,0.3c3-1.2,5.6-3.4,8.9-3.9c5-0.7,9.4,2.9,13.3,6.1c3.9,3.2,9,6.3,13.7,4.4
	c2.2-0.9,4.2-2.8,6.6-2.6c2.4,0.2,4,2.4,4.9,4.6c2.7,7.2-0.2,15.9,3.6,22.6c2.2,3.9,6.4,6.4,9.1,10c1.8,2.3,2.9,5.1,3.3,8
	c0.7,5.1-0.9,10.2-0.7,15.4c0.3,11,9.2,20.6,19.7,23.7c3.2,0.9,6.6,1.4,9.2,3.5c2.9,2.4,4,6.1,5.6,9.5c5.4,10.7,18.6,16.8,30.2,13.9
	l-2.3-2.6C1394.5,356.8,1384.3,351.1,1379.7,342z"/>
<path class="st2" d="M1309.2,298.8c-1.3,2-5.1,12.2-8.2,21.2c-2.9-1.1-5.6-8.4-5.6-8.4l15.6-22.2
	C1312.7,291.5,1311.6,295.2,1309.2,298.8z"/>
<path class="st16" d="M1308.8,296.5c-1.3,2-5.1,12.2-8.2,21.2c-2.9-1.1-5.6-8.4-5.6-8.4l15.6-22.2
	C1312.3,289.3,1311.2,292.9,1308.8,296.5z"/>
<path class="st18" d="M1218,398.7l-8.7-27.3c-0.4-1.3,0.3-2.8,1.6-3.2c0,0,0,0,0,0l0,0c1.3-0.4,2.8,0.3,3.2,1.7l8.7,27.3l-0.9,5.7
	L1218,398.7z"/>
<path class="st19" d="M1209.2,370.4L1209.2,370.4c1.3-0.4,2.8,0.3,3.2,1.7l8.7,27.3l-0.7,4.3l0.6,0.7l0.9-5.7l-8.7-27.3
	c-0.4-1.3-1.9-2.1-3.2-1.7l0,0c-0.5,0.2-1,0.5-1.3,1C1208.9,370.5,1209,370.5,1209.2,370.4z"/>
<polygon class="st20" points="1218.5,399.1 1223.4,397.6 1222.7,402.2 1222.5,403.3 1221.1,401.8 "/>
<path class="st21" d="M974.9,403.4c0.1-0.1,0.2-0.2,0.3-0.3c0.1-0.1,0.3-0.1,0.5,0c0.1,0.1,0.1,0.2,0.2,0.3c0.1,0.2,0.4,0.4,0.6,0.4
	l-0.2,1L974.9,403.4z"/>
<path class="st13" d="M1209.3,381.1c0,0,17.4-0.1,13.3,7.3s-10.5,8.3-10.5,8.3L1209.3,381.1z"/>
<path class="st4" d="M1138,26.2h-0.8c-29.8,0-56.2,15.8-71.4,39.1c-15.2-23.3-41.6-39.1-71.4-39.1h-0.8
	c-46.6,0.4-84.2,38.3-84.2,84.9c0,27.8,12.2,67.3,35.9,99.7c45.2,61.9,120.4,116,120.4,116s75.2-54.1,120.4-116
	c23.8-32.5,35.9-71.9,35.9-99.7C1222.1,64.5,1184.6,26.6,1138,26.2z M1127.3,215.6c-7,0-13.2-4.3-15.7-10.8h-17.8
	c-2.4,0-4.5-1.6-5.3-3.8l-5.5-16.5l-17.3,60.6c-0.7,2.4-2.9,4-5.4,4h-0.3c-2.6-0.1-4.8-2.1-5.2-4.6L1036.8,137l-13.1,63.6
	c-0.6,2.5-2.8,4.2-5.4,4.2h-25.1c-3.1,0.1-5.7-2.3-5.8-5.3c-0.1-3.1,2.3-5.7,5.3-5.8c0.2,0,0.3,0,0.5,0h20.7l18.5-85.5
	c0.7-3,3.8-4.9,6.8-4.1c2.2,0.5,3.9,2.4,4.2,4.6l18.2,109.6l15.5-54.2c0.7-2.3,2.8-4,5.2-4h0.1c2.4,0,4.5,1.5,5.3,3.8l9.9,29.8h13.6
	c2.9-8.8,12.4-13.6,21.2-10.7c8.8,2.9,13.6,12.4,10.7,21.2C1140.9,211,1134.5,215.7,1127.3,215.6L1127.3,215.6z"/>
</svg>
