<?xml version="1.0" encoding="utf-8"?>
<!-- Generator: Adobe Illustrator 24.2.3, SVG Export Plug-In . SVG Version: 6.00 Build 0)  -->
<svg version="1.1" id="be32c85c-9388-4a2b-a4e5-271574a5b9b2"
	 xmlns="http://www.w3.org/2000/svg" xmlns:xlink="http://www.w3.org/1999/xlink" x="0px" y="0px" viewBox="0 0 1235.2 651.9"
	 style="enable-background:new 0 0 1235.2 651.9;" xml:space="preserve">
<style type="text/css">
	.st0{fill:#E6E6E6;}
	.st1{fill:#2F2E41;}
	.st2{fill:#FFB8B8;}
	.st3{opacity:0.1;enable-background:new    ;}
	.st4{fill:#FFFFFF;}
	.st5{fill:#6D94FB;}
	.st6{fill:#3F3D56;}
	.st7{fill:#F2F2F2;}
</style>
<ellipse class="st0" cx="185.7" cy="631.8" rx="96.3" ry="20"/>
<ellipse class="st1" cx="144.1" cy="143.7" rx="33.2" ry="31.1"/>
<path class="st2" d="M240.8,337.5l8.4,11.8c0,0,40.4,8.4,25.2,21s-37-11.8-37-11.8l-11.8-15.1L240.8,337.5z"/>
<path class="st0" d="M197.1,203.8c0,0,10.9,0,13.5,15.1s5,65.6,5,65.6s35.3,46.2,29.4,52.1s-12.6,16.8-16.8,15.1
	s-40.4-51.3-40.4-51.3L197.1,203.8z"/>
<path class="st2" d="M163.4,160.9c0,0,0.8,32.8,10.9,34.5s6.7,12.6,6.7,12.6s-32.8,19.3-54.7,0l-4.2-10.1c0,0,15.1-10.9,8.4-26.1
	L163.4,160.9z"/>
<path class="st1" d="M219.8,362.7c0,0,49.6,92.5,31.1,121.1s-46.2,87.5-50.5,87.5s-27.7-11.8-26.1-19.3s26.9-63.9,33.6-69
	s3.4-18.5,2.5-19.3s-28.6-45.4-28.6-45.4s0.8,70.6-2.5,81.6s0.8,89.1-3.4,92.5s-23.5,9.2-26.9,4.2s-13.5-81.6-6.7-99.2l-12.6-121.1
	L219.8,362.7z"/>
<path class="st1" d="M174.4,587.2l21,38.7c0,0,30.3,21.9,9.2,25.2s-33.6-5-33.6-5l-18.5-13.5V594L174.4,587.2z"/>
<path class="st1" d="M202.9,565.4L192,591.4c0,0-4.2,10.9,0,13.5s16,17.7,8.4,19.3c-1.5,0.3-3.1,0.5-4.6,0.5
	c-12.7,0.2-25-4.8-34-13.8L155,604c0,0,23.4-53.8,23-53.4S202.9,565.4,202.9,565.4z"/>
<circle class="st2" cx="142.4" cy="152.5" r="28.6"/>
<path class="st0" d="M126,192.4l8.8,8.8c0,0,26.9,10.1,39.5,0c0,0-4.6-9.7-4.6-8.8s36.6,6.3,39.9,21.4s-2.5,41.2-2.5,41.2
	s23.5,111,14.3,113.5s-95.9,23.5-95,7.6s-6.7-81.6-6.7-81.6l-29.4-56.3c0,0,4.2-18.5,14.3-24.4S126,192.4,126,192.4z"/>
<path class="st2" d="M163.4,356.8l10.9,6.7c0,0,42,28.6,20.2,33.6S160.1,377,160.1,377l-8.4-10.1L163.4,356.8z"/>
<path class="st3" d="M101.2,233.2l-7.6,7.6c0,0-5,70.6,5,84.9s56.3,53,58.9,50.5s18.5-15.1,15.1-16.8s-48.1-48.4-48.1-48.4l3.5-65.1
	L101.2,233.2z"/>
<path class="st0" d="M97.8,230.7l-7.6,7.6c0,0-5,70.6,5,84.9s56.3,53,58.9,50.5s18.5-15.1,15.1-16.8s-48.1-48.4-48.1-48.4l3.5-65.1
	L97.8,230.7z"/>
<path class="st1" d="M154.2,111.9c0,0,9.7-3.5,23,4l-7.1,1.8c0,0,10.6,0.9,11.9,15h-4.9c0,0,3.1,12.4,0,15.9l-2-3.8l-5.7,11.5
	l-1.3-5.7l-2.7,0.9l-1.8-9.3c0,0-4.4,6.6-8,7.1v-5.7c0,0-9.7,11-12.8,10.6l4.4-6.2l-6.2,1.3l2.7-4.4l-15.9,4.4l3.5-4.4l-11,3.5
	l-5.3,2.2c0,0-7.5-17.2,3.1-29.2S144.3,106.8,154.2,111.9z"/>
<rect x="355" y="143.7" class="st0" width="462.9" height="296.4"/>
<rect x="368.2" y="180.9" class="st4" width="436.4" height="241.7"/>
<rect x="354.8" y="143.4" class="st5" width="462.9" height="19.7"/>
<circle class="st4" cx="369.4" cy="153.5" r="3.6"/>
<circle class="st4" cx="383.2" cy="153.5" r="3.6"/>
<circle class="st4" cx="397" cy="153.5" r="3.6"/>
<rect x="407.9" y="205.9" class="st0" width="112.1" height="191.6"/>
<rect x="539.3" y="205.9" class="st5" width="93.4" height="52.7"/>
<rect x="539.3" y="273.4" class="st0" width="93.4" height="56.7"/>
<rect x="539.3" y="344.8" class="st0" width="93.4" height="52.7"/>
<rect x="652.8" y="205.9" class="st0" width="112.1" height="83.5"/>
<rect x="652.8" y="314" class="st5" width="112.1" height="83.5"/>
<polygon class="st6" points="587,229.8 585.6,229.4 617.5,109.2 802.8,109.2 802.8,110.7 618.7,110.7 "/>
<path class="st6" d="M817.9,125.9c-8.8,0-15.9-7.1-15.9-15.9c0-8.8,7.1-15.9,15.9-15.9c8.8,0,15.9,7.1,15.9,15.9v0
	C833.8,118.8,826.7,125.9,817.9,125.9z M817.9,95.6c-7.9,0-14.4,6.4-14.4,14.4s6.4,14.4,14.4,14.4c7.9,0,14.4-6.4,14.4-14.4
	c0,0,0,0,0,0C832.3,102,825.9,95.6,817.9,95.6z"/>
<circle class="st5" cx="817.9" cy="110" r="6.1"/>
<polygon class="st6" points="679.2,475.6 493.9,475.6 493.9,474.1 678.1,474.1 709.7,355 711.2,355.4 "/>
<path class="st6" d="M478.8,490.7c-8.8,0-15.9-7.1-15.9-15.9c0-8.8,7.1-15.9,15.9-15.9c8.8,0,15.9,7.1,15.9,15.9c0,0,0,0,0,0
	C494.7,483.6,487.6,490.7,478.8,490.7z M478.8,460.5c-7.9,0-14.4,6.4-14.4,14.4s6.4,14.4,14.4,14.4s14.4-6.4,14.4-14.4l0,0
	C493.2,466.9,486.7,460.5,478.8,460.5z"/>
<circle class="st5" cx="478.8" cy="474.8" r="6.1"/>
<path class="st7" d="M1113.2,648.4c-13.6-9.1-20.5-26.5-20.8-42.8c-0.1-5.5,1.3-11.9,6.2-14.3c4.2-2.1,9.4-0.4,11.5,3.9
	c0.8,1.6,1.1,3.4,0.8,5.2c1.8-5.3,4.2-10.5,7.1-15.4c2.4-4.1,5.9-8.4,10.6-8.8c5.5-0.5,10.2,4.9,10.9,10.4c0.8,5.5-1.2,11-3.2,16.1
	c1.8-7.8,9.6-12.6,17.4-10.7c2,0.5,3.9,1.4,5.5,2.6c5.4,4.2,7.2,11.9,5.8,18.6c-1.4,6.7-5.4,12.6-9.8,17.8
	c-5.2,6.1-11.2,11.7-18.4,15.2c-7.2,3.5-15.7,4.9-23.3,2.5L1113.2,648.4z"/>
<path class="st2" d="M926.8,429c7.1-3.5,10-12.1,6.4-19.2c-0.4-0.8-0.8-1.5-1.3-2.2l33.4-162.1l-31.1-0.4l-23.2,160
	c-6.1,5.2-6.8,14.2-1.6,20.3C913.7,430.5,920.9,432,926.8,429L926.8,429z"/>
<path class="st2" d="M1078.5,420.6c5.8-5.4,6.1-14.5,0.7-20.2c-0.6-0.6-1.2-1.2-1.9-1.7L1063,233.8l-30,8.5l23.5,159.9
	c-4.3,6.7-2.4,15.6,4.2,19.9C1066.4,425.8,1073.7,425.1,1078.5,420.6z"/>
<polygon class="st2" points="982.4,633.2 966.1,633.2 958.3,570.1 982.4,570.1 "/>
<path class="st1" d="M954.4,628.5h31.5l0,0v19.8l0,0h-51.4l0,0l0,0C934.6,637.4,943.4,628.5,954.4,628.5L954.4,628.5z"/>
<polygon class="st2" points="1055.8,633.2 1039.4,633.2 1031.6,570.1 1055.8,570.1 "/>
<path class="st1" d="M1027.7,628.5h31.5l0,0v19.8l0,0h-51.4l0,0l0,0C1007.9,637.4,1016.8,628.5,1027.7,628.5L1027.7,628.5z"/>
<circle class="st2" cx="986.7" cy="149.9" r="32.7"/>
<path class="st1" d="M1032.7,593.4c-2.7,0-5.1-2-5.6-4.7l-22.1-114.5c-0.5-2.4-2.8-4-5.2-3.5c-1.9,0.4-3.4,1.9-3.6,3.9l-12.4,111.6
	c-0.3,2.8-2.6,5-5.4,5.1l-18.6,0.8c-1.5,0.1-3-0.5-4.1-1.5c-1.1-1-1.8-2.5-1.9-4l-7.1-172.3c-0.1-1.8,0.7-3.5,2-4.6l4.1-3.5
	c1-0.9,2.4-1.4,3.7-1.4h96.4c3.2,0,5.7,2.6,5.7,5.7v176.3c0,3.1-2.4,5.6-5.5,5.7l-20.1,0.9C1032.9,593.4,1032.8,593.4,1032.7,593.4z
	"/>
<path class="st5" d="M983.3,429.8c-15.6,0-29.3-4.2-36.2-16.3c-0.6-1-0.9-2.1-0.8-3.3l8.7-133.2c0.1-1.1-0.3-2.1-0.9-3L929.7,242
	c-1.9-2.5-1.4-6.1,1.1-8c0,0,0,0,0,0l36.7-27.8c0.8-0.6,1.3-1.4,1.6-2.3l1.1-3.7c0.7-2.4,2.8-4.1,5.3-4.2l26.9-1
	c1.8-0.1,3.6,0.7,4.7,2.2l2.9,3.6c0.4,0.5,0.8,0.8,1.3,1.1l45,24.9c1.8,1,2.9,2.9,3,5l0,0.1l0,0.1c-10.5,43.7-9.9,99,1.9,174
	c0.1,2.3-1.3,4.5-3.4,5.4C1047.8,415.4,1012.4,429.8,983.3,429.8z"/>
<path class="st5" d="M955.9,292.4h-30.5c-3.2,0-5.7-2.6-5.7-5.7c0-0.1,0-0.2,0-0.3c0.5-7.8,1.3-22.5,2.2-34.2
	c1.3-16.8,17.7-25,17.9-25.1l0.3-0.2l11.1,7l10.3,51.6c0.6,3.1-1.4,6.1-4.5,6.8C956.7,292.4,956.3,292.4,955.9,292.4L955.9,292.4z"
	/>
<path class="st5" d="M1039.5,289.6c-3.2,0-5.7-2.6-5.7-5.8c0-0.2,0-0.4,0-0.6l5.6-51.7l10.9-8l0.2,0c0.1,0,11.7,1.5,16.9,14.4
	c3.7,9.2,9.3,26.3,12.4,35.6c1,3-0.7,6.2-3.7,7.2c-0.1,0-0.3,0.1-0.4,0.1l-34.8,8.5C1040.4,289.5,1039.9,289.6,1039.5,289.6z"/>
<path class="st1" d="M987.4,182.9c7-11.1-1.7-41.6-20.8-42.4c-4.4-0.2-6.1-6.6-7.6-10.7c-1.5-4.9-0.8-10.2,2.1-14.4
	c2.9-4.1,6.9-7.4,11.6-9.3c20.1-9.3,44-0.4,53.2,19.7c9.3,20.1,0.4,44-19.7,53.2c-3.5,1.6-7.2,2.7-11,3.3L987.4,182.9z"/>
<path class="st6" d="M1181.1,650.9H850.4c-0.7,0-1.3-0.6-1.3-1.3c0-0.7,0.6-1.3,1.3-1.3h330.7c0.7,0,1.3,0.6,1.3,1.3
	C1182.5,650.3,1181.9,650.9,1181.1,650.9z"/>
</svg>
